<svg width="41" height="40" viewBox="0 0 41 40" fill="none" xmlns="http://www.w3.org/2000/svg">
<path d="M3.07031 25.8558V6.63672H8.41526V25.8558C8.44053 26.8919 9.02178 27.5743 10.159 27.9028C10.3359 27.9533 10.4623 27.9786 10.5381 27.9786C10.6139 27.9786 12.0038 33.3615 10.5381 33.3615C9.07232 33.3615 7.60657 32.8434 6.14081 31.8072C4.11908 30.3162 3.09558 28.3324 3.07031 25.8558ZM12.5851 33.3615C11.4226 33.3615 12.1302 27.9786 12.5851 27.9786C13.04 27.9786 13.5201 27.7638 14.0256 27.3342C14.4552 26.9298 14.6826 26.437 14.7079 25.8558V6.63672H20.0149V25.8558C20.0149 28.7115 18.7514 30.8469 16.2242 32.2621C14.9606 32.995 13.7476 33.3615 12.5851 33.3615Z" fill="#264C86"/>
<path d="M20.0185 20.3996C19.8057 13.3812 31.667 6.70312 31.667 6.70312H37.075L25.3263 20.3996L37.0179 33.2944H31.748C31.748 33.2944 20.2247 27.2039 20.0185 20.3996Z" fill="#424141"/>
</svg>
